<mxfile host="app.diagrams.net" agent="Mozilla/5.0 (Windows NT 10.0; Win64; x64) AppleWebKit/537.36 (KHTML, like Gecko) Chrome/130.0.0.0 Safari/537.36" version="24.8.0">
  <diagram id="C5RBs43oDa-KdzZeNtuy" name="Page-1">
    <mxGraphModel dx="2876" dy="1066" grid="1" gridSize="10" guides="1" tooltips="1" connect="1" arrows="1" fold="1" page="1" pageScale="1" pageWidth="827" pageHeight="1169" math="0" shadow="0">
      <root>
        <mxCell id="WIyWlLk6GJQsqaUBKTNV-0" />
        <mxCell id="WIyWlLk6GJQsqaUBKTNV-1" parent="WIyWlLk6GJQsqaUBKTNV-0" />
        <mxCell id="zkfFHV4jXpPFQw0GAbJ--0" value="Actor" style="swimlane;fontStyle=2;align=center;verticalAlign=top;childLayout=stackLayout;horizontal=1;startSize=26;horizontalStack=0;resizeParent=1;resizeLast=0;collapsible=1;marginBottom=0;rounded=0;shadow=0;strokeWidth=1;" parent="WIyWlLk6GJQsqaUBKTNV-1" vertex="1">
          <mxGeometry x="220" y="120" width="160" height="52" as="geometry">
            <mxRectangle x="230" y="140" width="160" height="26" as="alternateBounds" />
          </mxGeometry>
        </mxCell>
        <mxCell id="zkfFHV4jXpPFQw0GAbJ--1" value="name" style="text;align=left;verticalAlign=top;spacingLeft=4;spacingRight=4;overflow=hidden;rotatable=0;points=[[0,0.5],[1,0.5]];portConstraint=eastwest;" parent="zkfFHV4jXpPFQw0GAbJ--0" vertex="1">
          <mxGeometry y="26" width="160" height="26" as="geometry" />
        </mxCell>
        <mxCell id="zkfFHV4jXpPFQw0GAbJ--6" value="Admin" style="swimlane;fontStyle=0;align=center;verticalAlign=top;childLayout=stackLayout;horizontal=1;startSize=26;horizontalStack=0;resizeParent=1;resizeLast=0;collapsible=1;marginBottom=0;rounded=0;shadow=0;strokeWidth=1;" parent="WIyWlLk6GJQsqaUBKTNV-1" vertex="1">
          <mxGeometry x="-20" y="360" width="160" height="52" as="geometry">
            <mxRectangle x="130" y="380" width="160" height="26" as="alternateBounds" />
          </mxGeometry>
        </mxCell>
        <mxCell id="zkfFHV4jXpPFQw0GAbJ--7" value="password" style="text;align=left;verticalAlign=top;spacingLeft=4;spacingRight=4;overflow=hidden;rotatable=0;points=[[0,0.5],[1,0.5]];portConstraint=eastwest;" parent="zkfFHV4jXpPFQw0GAbJ--6" vertex="1">
          <mxGeometry y="26" width="160" height="26" as="geometry" />
        </mxCell>
        <mxCell id="zkfFHV4jXpPFQw0GAbJ--12" value="" style="endArrow=block;endSize=10;endFill=0;shadow=0;strokeWidth=1;rounded=0;curved=0;edgeStyle=elbowEdgeStyle;elbow=vertical;entryX=0.294;entryY=0.962;entryDx=0;entryDy=0;entryPerimeter=0;" parent="WIyWlLk6GJQsqaUBKTNV-1" source="zkfFHV4jXpPFQw0GAbJ--6" target="zkfFHV4jXpPFQw0GAbJ--1" edge="1">
          <mxGeometry width="160" relative="1" as="geometry">
            <mxPoint x="200" y="203" as="sourcePoint" />
            <mxPoint x="200" y="203" as="targetPoint" />
            <Array as="points">
              <mxPoint x="170" y="320" />
            </Array>
          </mxGeometry>
        </mxCell>
        <mxCell id="zkfFHV4jXpPFQw0GAbJ--16" value="" style="endArrow=block;endSize=10;endFill=0;shadow=0;strokeWidth=1;rounded=0;curved=0;edgeStyle=elbowEdgeStyle;elbow=vertical;exitX=0.25;exitY=0;exitDx=0;exitDy=0;entryX=0.913;entryY=1;entryDx=0;entryDy=0;entryPerimeter=0;" parent="WIyWlLk6GJQsqaUBKTNV-1" target="zkfFHV4jXpPFQw0GAbJ--1" edge="1" source="GsYCjK2BZiHmMbfaY9qb-0">
          <mxGeometry width="160" relative="1" as="geometry">
            <mxPoint x="520" y="360" as="sourcePoint" />
            <mxPoint x="310" y="271" as="targetPoint" />
          </mxGeometry>
        </mxCell>
        <mxCell id="z8LdAQdNXlB_STHlRCPJ-0" value="Client" style="swimlane;fontStyle=0;align=center;verticalAlign=top;childLayout=stackLayout;horizontal=1;startSize=26;horizontalStack=0;resizeParent=1;resizeLast=0;collapsible=1;marginBottom=0;rounded=0;shadow=0;strokeWidth=1;" parent="WIyWlLk6GJQsqaUBKTNV-1" vertex="1">
          <mxGeometry x="-5" y="528" width="160" height="70" as="geometry">
            <mxRectangle x="340" y="380" width="170" height="26" as="alternateBounds" />
          </mxGeometry>
        </mxCell>
        <mxCell id="z8LdAQdNXlB_STHlRCPJ-1" value="phoneNumber&#xa;age&#xa;" style="text;align=left;verticalAlign=top;spacingLeft=4;spacingRight=4;overflow=hidden;rotatable=0;points=[[0,0.5],[1,0.5]];portConstraint=eastwest;" parent="z8LdAQdNXlB_STHlRCPJ-0" vertex="1">
          <mxGeometry y="26" width="160" height="44" as="geometry" />
        </mxCell>
        <mxCell id="z8LdAQdNXlB_STHlRCPJ-8" value="Offering" style="swimlane;fontStyle=0;align=center;verticalAlign=top;childLayout=stackLayout;horizontal=1;startSize=26;horizontalStack=0;resizeParent=1;resizeLast=0;collapsible=1;marginBottom=0;rounded=0;shadow=0;strokeWidth=1;" parent="WIyWlLk6GJQsqaUBKTNV-1" vertex="1">
          <mxGeometry x="827" y="768" width="160" height="150" as="geometry">
            <mxRectangle x="340" y="380" width="170" height="26" as="alternateBounds" />
          </mxGeometry>
        </mxCell>
        <mxCell id="z8LdAQdNXlB_STHlRCPJ-9" value="city&#xa;location&#xa;classType&#xa;capacity&#xa;spotsLeft&#xa;startTime&#xa;endTime&#xa;" style="text;align=left;verticalAlign=top;spacingLeft=4;spacingRight=4;overflow=hidden;rotatable=0;points=[[0,0.5],[1,0.5]];portConstraint=eastwest;" parent="z8LdAQdNXlB_STHlRCPJ-8" vertex="1">
          <mxGeometry y="26" width="160" height="114" as="geometry" />
        </mxCell>
        <mxCell id="z8LdAQdNXlB_STHlRCPJ-23" value="ClientsDB" style="rounded=0;whiteSpace=wrap;html=1;" parent="WIyWlLk6GJQsqaUBKTNV-1" vertex="1">
          <mxGeometry x="-32" y="660" width="120" height="60" as="geometry" />
        </mxCell>
        <mxCell id="z8LdAQdNXlB_STHlRCPJ-24" value="InstructorsDB" style="rounded=0;whiteSpace=wrap;html=1;" parent="WIyWlLk6GJQsqaUBKTNV-1" vertex="1">
          <mxGeometry x="630" y="105" width="120" height="60" as="geometry" />
        </mxCell>
        <mxCell id="z8LdAQdNXlB_STHlRCPJ-25" value="OfferingsDB" style="rounded=0;whiteSpace=wrap;html=1;" parent="WIyWlLk6GJQsqaUBKTNV-1" vertex="1">
          <mxGeometry x="847" y="1000" width="120" height="60" as="geometry" />
        </mxCell>
        <mxCell id="GsYCjK2BZiHmMbfaY9qb-0" value="Instructor" style="swimlane;fontStyle=0;align=center;verticalAlign=top;childLayout=stackLayout;horizontal=1;startSize=26;horizontalStack=0;resizeParent=1;resizeLast=0;collapsible=1;marginBottom=0;rounded=0;shadow=0;strokeWidth=1;" parent="WIyWlLk6GJQsqaUBKTNV-1" vertex="1">
          <mxGeometry x="610" y="360" width="160" height="80" as="geometry">
            <mxRectangle x="340" y="380" width="170" height="26" as="alternateBounds" />
          </mxGeometry>
        </mxCell>
        <mxCell id="GsYCjK2BZiHmMbfaY9qb-1" value="phoneNumber&#xa;specialty&#xa;cities&#xa;" style="text;align=left;verticalAlign=top;spacingLeft=4;spacingRight=4;overflow=hidden;rotatable=0;points=[[0,0.5],[1,0.5]];portConstraint=eastwest;" parent="GsYCjK2BZiHmMbfaY9qb-0" vertex="1">
          <mxGeometry y="26" width="160" height="54" as="geometry" />
        </mxCell>
        <mxCell id="GsYCjK2BZiHmMbfaY9qb-2" value="" style="endArrow=none;html=1;rounded=0;exitX=0.616;exitY=0.011;exitDx=0;exitDy=0;entryX=1.012;entryY=0.706;entryDx=0;entryDy=0;entryPerimeter=0;exitPerimeter=0;" parent="WIyWlLk6GJQsqaUBKTNV-1" source="z8LdAQdNXlB_STHlRCPJ-8" edge="1" target="GsYCjK2BZiHmMbfaY9qb-1">
          <mxGeometry width="50" height="50" relative="1" as="geometry">
            <mxPoint x="580" y="500" as="sourcePoint" />
            <mxPoint x="580" y="440" as="targetPoint" />
            <Array as="points">
              <mxPoint x="920" y="424" />
            </Array>
          </mxGeometry>
        </mxCell>
        <mxCell id="GsYCjK2BZiHmMbfaY9qb-6" value="*" style="text;html=1;align=center;verticalAlign=middle;resizable=0;points=[];autosize=1;strokeColor=none;fillColor=none;" parent="WIyWlLk6GJQsqaUBKTNV-1" vertex="1">
          <mxGeometry x="930" y="738" width="30" height="30" as="geometry" />
        </mxCell>
        <mxCell id="GsYCjK2BZiHmMbfaY9qb-7" value="0...1" style="text;html=1;align=center;verticalAlign=middle;resizable=0;points=[];autosize=1;strokeColor=none;fillColor=none;" parent="WIyWlLk6GJQsqaUBKTNV-1" vertex="1">
          <mxGeometry x="760" y="420" width="50" height="30" as="geometry" />
        </mxCell>
        <mxCell id="GsYCjK2BZiHmMbfaY9qb-9" value="" style="endArrow=diamondThin;endFill=1;endSize=24;html=1;rounded=0;entryX=0.5;entryY=0;entryDx=0;entryDy=0;exitX=0.208;exitY=1.015;exitDx=0;exitDy=0;exitPerimeter=0;" parent="WIyWlLk6GJQsqaUBKTNV-1" source="z8LdAQdNXlB_STHlRCPJ-1" target="z8LdAQdNXlB_STHlRCPJ-23" edge="1">
          <mxGeometry width="160" relative="1" as="geometry">
            <mxPoint x="480" y="460" as="sourcePoint" />
            <mxPoint x="640" y="460" as="targetPoint" />
          </mxGeometry>
        </mxCell>
        <mxCell id="GsYCjK2BZiHmMbfaY9qb-10" value="" style="endArrow=diamondThin;endFill=1;endSize=24;html=1;rounded=0;entryX=0.5;entryY=1;entryDx=0;entryDy=0;exitX=0.5;exitY=0;exitDx=0;exitDy=0;" parent="WIyWlLk6GJQsqaUBKTNV-1" source="GsYCjK2BZiHmMbfaY9qb-0" target="z8LdAQdNXlB_STHlRCPJ-24" edge="1">
          <mxGeometry width="160" relative="1" as="geometry">
            <mxPoint x="662" y="281" as="sourcePoint" />
            <mxPoint x="660" y="519" as="targetPoint" />
            <Array as="points">
              <mxPoint x="690" y="290" />
            </Array>
          </mxGeometry>
        </mxCell>
        <mxCell id="GsYCjK2BZiHmMbfaY9qb-11" value="" style="endArrow=diamondThin;endFill=1;endSize=24;html=1;rounded=0;entryX=0.5;entryY=0;entryDx=0;entryDy=0;exitX=0.5;exitY=1;exitDx=0;exitDy=0;" parent="WIyWlLk6GJQsqaUBKTNV-1" source="z8LdAQdNXlB_STHlRCPJ-8" target="z8LdAQdNXlB_STHlRCPJ-25" edge="1">
          <mxGeometry width="160" relative="1" as="geometry">
            <mxPoint x="252" y="452" as="sourcePoint" />
            <mxPoint x="250" y="690" as="targetPoint" />
          </mxGeometry>
        </mxCell>
        <mxCell id="GsYCjK2BZiHmMbfaY9qb-18" value="UserInterface" style="rounded=0;whiteSpace=wrap;html=1;" parent="WIyWlLk6GJQsqaUBKTNV-1" vertex="1">
          <mxGeometry x="30" y="120" width="120" height="50" as="geometry" />
        </mxCell>
        <mxCell id="GsYCjK2BZiHmMbfaY9qb-19" value="" style="endArrow=none;html=1;rounded=0;exitX=1;exitY=0.5;exitDx=0;exitDy=0;entryX=0;entryY=0.5;entryDx=0;entryDy=0;" parent="WIyWlLk6GJQsqaUBKTNV-1" source="GsYCjK2BZiHmMbfaY9qb-18" target="zkfFHV4jXpPFQw0GAbJ--0" edge="1">
          <mxGeometry width="50" height="50" relative="1" as="geometry">
            <mxPoint x="210" y="250" as="sourcePoint" />
            <mxPoint x="260" y="200" as="targetPoint" />
          </mxGeometry>
        </mxCell>
        <mxCell id="GsYCjK2BZiHmMbfaY9qb-20" value="&lt;div&gt;-The UserInterface (UI) is actually made up of several classes, but that is not relevant (according to the project description)&lt;/div&gt;-The User can access (login) to different types of Actors (Admin, Client, Instructor) via the UserInterface" style="shape=note;whiteSpace=wrap;html=1;backgroundOutline=1;darkOpacity=0.05;align=left;" parent="WIyWlLk6GJQsqaUBKTNV-1" vertex="1">
          <mxGeometry x="-300" y="110" width="300" height="130" as="geometry" />
        </mxCell>
        <mxCell id="Pi1-9xCyTz9n0Azinkjw-0" value="AdminDB" style="rounded=0;whiteSpace=wrap;html=1;" parent="WIyWlLk6GJQsqaUBKTNV-1" vertex="1">
          <mxGeometry x="-40" y="250" width="120" height="60" as="geometry" />
        </mxCell>
        <mxCell id="Pi1-9xCyTz9n0Azinkjw-1" value="" style="endArrow=diamondThin;endFill=1;endSize=24;html=1;rounded=0;exitX=0.25;exitY=0;exitDx=0;exitDy=0;entryX=0.5;entryY=1;entryDx=0;entryDy=0;" parent="WIyWlLk6GJQsqaUBKTNV-1" edge="1" target="Pi1-9xCyTz9n0Azinkjw-0" source="zkfFHV4jXpPFQw0GAbJ--6">
          <mxGeometry width="160" relative="1" as="geometry">
            <mxPoint x="62" y="412" as="sourcePoint" />
            <mxPoint x="62" y="480" as="targetPoint" />
          </mxGeometry>
        </mxCell>
        <mxCell id="Pi1-9xCyTz9n0Azinkjw-2" value="There is only one admin, but the credentials are stored in the DB because we thought that is more appropriate. So, AdminDB only has one row.&lt;div&gt;&lt;/div&gt;" style="shape=note;whiteSpace=wrap;html=1;backgroundOutline=1;darkOpacity=0.05;align=left;" parent="WIyWlLk6GJQsqaUBKTNV-1" vertex="1">
          <mxGeometry x="-310" y="331" width="230" height="110" as="geometry" />
        </mxCell>
        <mxCell id="O131IjuFNEu1C1bkUDbq-0" value="" style="endArrow=none;html=1;rounded=0;entryX=0.5;entryY=0;entryDx=0;entryDy=0;exitX=0.881;exitY=-0.022;exitDx=0;exitDy=0;exitPerimeter=0;" edge="1" parent="WIyWlLk6GJQsqaUBKTNV-1" source="z8LdAQdNXlB_STHlRCPJ-8" target="GsYCjK2BZiHmMbfaY9qb-18">
          <mxGeometry width="50" height="50" relative="1" as="geometry">
            <mxPoint x="910" y="40" as="sourcePoint" />
            <mxPoint x="520" y="300" as="targetPoint" />
            <Array as="points">
              <mxPoint x="960" y="40" />
              <mxPoint x="90" y="40" />
            </Array>
          </mxGeometry>
        </mxCell>
        <mxCell id="O131IjuFNEu1C1bkUDbq-1" value="1" style="text;html=1;align=center;verticalAlign=middle;resizable=0;points=[];autosize=1;strokeColor=none;fillColor=none;" vertex="1" parent="WIyWlLk6GJQsqaUBKTNV-1">
          <mxGeometry x="85" y="98" width="30" height="30" as="geometry" />
        </mxCell>
        <mxCell id="O131IjuFNEu1C1bkUDbq-2" value="*" style="text;html=1;align=center;verticalAlign=middle;resizable=0;points=[];autosize=1;strokeColor=none;fillColor=none;" vertex="1" parent="WIyWlLk6GJQsqaUBKTNV-1">
          <mxGeometry x="967" y="738" width="30" height="30" as="geometry" />
        </mxCell>
        <mxCell id="O131IjuFNEu1C1bkUDbq-3" value="Shows-to-actor" style="text;html=1;align=center;verticalAlign=middle;resizable=0;points=[];autosize=1;strokeColor=none;fillColor=none;" vertex="1" parent="WIyWlLk6GJQsqaUBKTNV-1">
          <mxGeometry x="400" y="8" width="100" height="30" as="geometry" />
        </mxCell>
        <mxCell id="O131IjuFNEu1C1bkUDbq-4" value="Navigates" style="text;html=1;align=center;verticalAlign=middle;resizable=0;points=[];autosize=1;strokeColor=none;fillColor=none;" vertex="1" parent="WIyWlLk6GJQsqaUBKTNV-1">
          <mxGeometry x="145" y="120" width="80" height="30" as="geometry" />
        </mxCell>
        <mxCell id="O131IjuFNEu1C1bkUDbq-5" value="" style="triangle;whiteSpace=wrap;html=1;fillColor=#000000;rotation=-179;" vertex="1" parent="WIyWlLk6GJQsqaUBKTNV-1">
          <mxGeometry x="170" y="150" width="20" height="24" as="geometry" />
        </mxCell>
        <mxCell id="O131IjuFNEu1C1bkUDbq-6" value="" style="endArrow=none;html=1;rounded=0;exitX=0;exitY=0;exitDx=0;exitDy=0;exitPerimeter=0;entryX=0.004;entryY=0.885;entryDx=0;entryDy=0;entryPerimeter=0;" edge="1" parent="WIyWlLk6GJQsqaUBKTNV-1" source="zkfFHV4jXpPFQw0GAbJ--7" target="z8LdAQdNXlB_STHlRCPJ-9">
          <mxGeometry width="50" height="50" relative="1" as="geometry">
            <mxPoint x="410" y="460" as="sourcePoint" />
            <mxPoint x="580" y="800" as="targetPoint" />
            <Array as="points">
              <mxPoint x="-50" y="386" />
              <mxPoint x="-50" y="800" />
              <mxPoint x="-50" y="900" />
            </Array>
          </mxGeometry>
        </mxCell>
        <mxCell id="O131IjuFNEu1C1bkUDbq-9" value="1" style="text;html=1;align=center;verticalAlign=middle;resizable=0;points=[];autosize=1;strokeColor=none;fillColor=none;" vertex="1" parent="WIyWlLk6GJQsqaUBKTNV-1">
          <mxGeometry x="-5" y="358" width="30" height="30" as="geometry" />
        </mxCell>
        <mxCell id="O131IjuFNEu1C1bkUDbq-10" value="*" style="text;html=1;align=center;verticalAlign=middle;resizable=0;points=[];autosize=1;strokeColor=none;fillColor=none;" vertex="1" parent="WIyWlLk6GJQsqaUBKTNV-1">
          <mxGeometry x="797" y="870" width="30" height="30" as="geometry" />
        </mxCell>
        <mxCell id="O131IjuFNEu1C1bkUDbq-11" value="Can-see-all" style="text;html=1;align=center;verticalAlign=middle;resizable=0;points=[];autosize=1;strokeColor=none;fillColor=none;" vertex="1" parent="WIyWlLk6GJQsqaUBKTNV-1">
          <mxGeometry x="390" y="900" width="80" height="30" as="geometry" />
        </mxCell>
        <mxCell id="O131IjuFNEu1C1bkUDbq-12" value="" style="endArrow=none;html=1;rounded=0;exitX=1;exitY=0.5;exitDx=0;exitDy=0;entryX=0;entryY=0.259;entryDx=0;entryDy=0;entryPerimeter=0;" edge="1" parent="WIyWlLk6GJQsqaUBKTNV-1" source="zkfFHV4jXpPFQw0GAbJ--7" target="GsYCjK2BZiHmMbfaY9qb-1">
          <mxGeometry width="50" height="50" relative="1" as="geometry">
            <mxPoint x="410" y="520" as="sourcePoint" />
            <mxPoint x="460" y="470" as="targetPoint" />
          </mxGeometry>
        </mxCell>
        <mxCell id="O131IjuFNEu1C1bkUDbq-13" value="Can-see-all" style="text;html=1;align=center;verticalAlign=middle;resizable=0;points=[];autosize=1;strokeColor=none;fillColor=none;" vertex="1" parent="WIyWlLk6GJQsqaUBKTNV-1">
          <mxGeometry x="185" y="371" width="80" height="30" as="geometry" />
        </mxCell>
        <mxCell id="O131IjuFNEu1C1bkUDbq-14" value="0" style="text;html=1;align=center;verticalAlign=middle;resizable=0;points=[];autosize=1;strokeColor=none;fillColor=none;" vertex="1" parent="WIyWlLk6GJQsqaUBKTNV-1">
          <mxGeometry x="150" y="368" width="30" height="30" as="geometry" />
        </mxCell>
        <mxCell id="O131IjuFNEu1C1bkUDbq-15" value="*" style="text;html=1;align=center;verticalAlign=middle;resizable=0;points=[];autosize=1;strokeColor=none;fillColor=none;" vertex="1" parent="WIyWlLk6GJQsqaUBKTNV-1">
          <mxGeometry x="570" y="371" width="30" height="30" as="geometry" />
        </mxCell>
        <mxCell id="O131IjuFNEu1C1bkUDbq-16" value="" style="endArrow=none;html=1;rounded=0;exitX=0.154;exitY=1.064;exitDx=0;exitDy=0;exitPerimeter=0;entryX=0.061;entryY=0.011;entryDx=0;entryDy=0;entryPerimeter=0;" edge="1" parent="WIyWlLk6GJQsqaUBKTNV-1" source="zkfFHV4jXpPFQw0GAbJ--7" target="z8LdAQdNXlB_STHlRCPJ-0">
          <mxGeometry width="50" height="50" relative="1" as="geometry">
            <mxPoint x="150" y="414" as="sourcePoint" />
            <mxPoint x="230" y="510" as="targetPoint" />
            <Array as="points">
              <mxPoint x="5" y="470" />
            </Array>
          </mxGeometry>
        </mxCell>
        <mxCell id="O131IjuFNEu1C1bkUDbq-17" value="0" style="text;html=1;align=center;verticalAlign=middle;resizable=0;points=[];autosize=1;strokeColor=none;fillColor=none;" vertex="1" parent="WIyWlLk6GJQsqaUBKTNV-1">
          <mxGeometry x="5" y="410" width="30" height="30" as="geometry" />
        </mxCell>
        <mxCell id="O131IjuFNEu1C1bkUDbq-18" value="*" style="text;html=1;align=center;verticalAlign=middle;resizable=0;points=[];autosize=1;strokeColor=none;fillColor=none;" vertex="1" parent="WIyWlLk6GJQsqaUBKTNV-1">
          <mxGeometry x="185" y="538" width="30" height="30" as="geometry" />
        </mxCell>
        <mxCell id="O131IjuFNEu1C1bkUDbq-20" value="Can-see-all" style="text;html=1;align=center;verticalAlign=middle;resizable=0;points=[];autosize=1;strokeColor=none;fillColor=none;" vertex="1" parent="WIyWlLk6GJQsqaUBKTNV-1">
          <mxGeometry y="450" width="80" height="30" as="geometry" />
        </mxCell>
        <mxCell id="O131IjuFNEu1C1bkUDbq-21" value="Booking" style="swimlane;fontStyle=0;align=center;verticalAlign=top;childLayout=stackLayout;horizontal=1;startSize=26;horizontalStack=0;resizeParent=1;resizeLast=0;collapsible=1;marginBottom=0;rounded=0;shadow=0;strokeWidth=1;" vertex="1" parent="WIyWlLk6GJQsqaUBKTNV-1">
          <mxGeometry x="515" y="598" width="160" height="70" as="geometry">
            <mxRectangle x="340" y="380" width="170" height="26" as="alternateBounds" />
          </mxGeometry>
        </mxCell>
        <mxCell id="O131IjuFNEu1C1bkUDbq-22" value="offeringId&#xa;minorId" style="text;align=left;verticalAlign=top;spacingLeft=4;spacingRight=4;overflow=hidden;rotatable=0;points=[[0,0.5],[1,0.5]];portConstraint=eastwest;" vertex="1" parent="O131IjuFNEu1C1bkUDbq-21">
          <mxGeometry y="26" width="160" height="44" as="geometry" />
        </mxCell>
        <mxCell id="O131IjuFNEu1C1bkUDbq-24" value="MinorBooking" style="swimlane;fontStyle=0;align=center;verticalAlign=top;childLayout=stackLayout;horizontal=1;startSize=26;horizontalStack=0;resizeParent=1;resizeLast=0;collapsible=1;marginBottom=0;rounded=0;shadow=0;strokeWidth=1;" vertex="1" parent="WIyWlLk6GJQsqaUBKTNV-1">
          <mxGeometry x="515" y="710" width="160" height="70" as="geometry">
            <mxRectangle x="340" y="380" width="170" height="26" as="alternateBounds" />
          </mxGeometry>
        </mxCell>
        <mxCell id="O131IjuFNEu1C1bkUDbq-25" value="minorId" style="text;align=left;verticalAlign=top;spacingLeft=4;spacingRight=4;overflow=hidden;rotatable=0;points=[[0,0.5],[1,0.5]];portConstraint=eastwest;" vertex="1" parent="O131IjuFNEu1C1bkUDbq-24">
          <mxGeometry y="26" width="160" height="44" as="geometry" />
        </mxCell>
        <mxCell id="O131IjuFNEu1C1bkUDbq-26" value="" style="endArrow=block;endSize=10;endFill=0;shadow=0;strokeWidth=1;rounded=0;curved=0;edgeStyle=elbowEdgeStyle;elbow=vertical;" edge="1" parent="O131IjuFNEu1C1bkUDbq-24">
          <mxGeometry width="160" relative="1" as="geometry">
            <mxPoint x="80" as="sourcePoint" />
            <mxPoint x="79.58000000000004" y="-40" as="targetPoint" />
          </mxGeometry>
        </mxCell>
        <mxCell id="O131IjuFNEu1C1bkUDbq-28" value="BookingsDB" style="rounded=0;whiteSpace=wrap;html=1;" vertex="1" parent="WIyWlLk6GJQsqaUBKTNV-1">
          <mxGeometry x="719" y="603" width="90" height="60" as="geometry" />
        </mxCell>
        <mxCell id="O131IjuFNEu1C1bkUDbq-29" value="" style="endArrow=diamondThin;endFill=1;endSize=24;html=1;rounded=0;entryX=0.003;entryY=0.532;entryDx=0;entryDy=0;exitX=1.003;exitY=0.255;exitDx=0;exitDy=0;exitPerimeter=0;entryPerimeter=0;" edge="1" parent="WIyWlLk6GJQsqaUBKTNV-1" target="O131IjuFNEu1C1bkUDbq-28">
          <mxGeometry width="160" relative="1" as="geometry">
            <mxPoint x="676.4800000000002" y="635.22" as="sourcePoint" />
            <mxPoint x="717.8400000000001" y="634.8000000000001" as="targetPoint" />
            <Array as="points" />
          </mxGeometry>
        </mxCell>
        <mxCell id="O131IjuFNEu1C1bkUDbq-31" value="" style="endArrow=none;html=1;rounded=0;exitX=1;exitY=0.25;exitDx=0;exitDy=0;entryX=0.136;entryY=-0.006;entryDx=0;entryDy=0;entryPerimeter=0;" edge="1" parent="WIyWlLk6GJQsqaUBKTNV-1" source="z8LdAQdNXlB_STHlRCPJ-0" target="z8LdAQdNXlB_STHlRCPJ-8">
          <mxGeometry width="50" height="50" relative="1" as="geometry">
            <mxPoint x="700" y="590" as="sourcePoint" />
            <mxPoint x="830" y="533" as="targetPoint" />
            <Array as="points">
              <mxPoint x="849" y="540" />
            </Array>
          </mxGeometry>
        </mxCell>
        <mxCell id="O131IjuFNEu1C1bkUDbq-32" value="" style="endArrow=none;dashed=1;html=1;dashPattern=1 3;strokeWidth=2;rounded=0;exitX=0.5;exitY=0;exitDx=0;exitDy=0;" edge="1" parent="WIyWlLk6GJQsqaUBKTNV-1" source="O131IjuFNEu1C1bkUDbq-21">
          <mxGeometry width="50" height="50" relative="1" as="geometry">
            <mxPoint x="700" y="590" as="sourcePoint" />
            <mxPoint x="595" y="540" as="targetPoint" />
          </mxGeometry>
        </mxCell>
        <mxCell id="O131IjuFNEu1C1bkUDbq-33" value="Reserves" style="text;html=1;align=center;verticalAlign=middle;resizable=0;points=[];autosize=1;strokeColor=none;fillColor=none;" vertex="1" parent="WIyWlLk6GJQsqaUBKTNV-1">
          <mxGeometry x="560" y="508" width="70" height="30" as="geometry" />
        </mxCell>
        <mxCell id="O131IjuFNEu1C1bkUDbq-34" value="*" style="text;html=1;align=center;verticalAlign=middle;resizable=0;points=[];autosize=1;strokeColor=none;fillColor=none;" vertex="1" parent="WIyWlLk6GJQsqaUBKTNV-1">
          <mxGeometry y="508" width="30" height="30" as="geometry" />
        </mxCell>
        <mxCell id="O131IjuFNEu1C1bkUDbq-35" value="*" style="text;html=1;align=center;verticalAlign=middle;resizable=0;points=[];autosize=1;strokeColor=none;fillColor=none;" vertex="1" parent="WIyWlLk6GJQsqaUBKTNV-1">
          <mxGeometry x="825" y="738" width="30" height="30" as="geometry" />
        </mxCell>
        <mxCell id="O131IjuFNEu1C1bkUDbq-40" value="Teaches" style="text;html=1;align=center;verticalAlign=middle;resizable=0;points=[];autosize=1;strokeColor=none;fillColor=none;" vertex="1" parent="WIyWlLk6GJQsqaUBKTNV-1">
          <mxGeometry x="785" y="398" width="70" height="30" as="geometry" />
        </mxCell>
        <mxCell id="O131IjuFNEu1C1bkUDbq-46" value="" style="endArrow=block;endSize=10;endFill=0;shadow=0;strokeWidth=1;rounded=0;curved=0;edgeStyle=elbowEdgeStyle;elbow=vertical;entryX=0.467;entryY=1.006;entryDx=0;entryDy=0;entryPerimeter=0;exitX=0.72;exitY=0.023;exitDx=0;exitDy=0;exitPerimeter=0;" edge="1" parent="WIyWlLk6GJQsqaUBKTNV-1" source="z8LdAQdNXlB_STHlRCPJ-0" target="zkfFHV4jXpPFQw0GAbJ--1">
          <mxGeometry width="160" relative="1" as="geometry">
            <mxPoint x="110" y="531" as="sourcePoint" />
            <mxPoint x="322" y="170" as="targetPoint" />
            <Array as="points">
              <mxPoint x="290" y="480" />
            </Array>
          </mxGeometry>
        </mxCell>
        <mxCell id="O131IjuFNEu1C1bkUDbq-49" value="Minor" style="rounded=0;whiteSpace=wrap;html=1;" vertex="1" parent="WIyWlLk6GJQsqaUBKTNV-1">
          <mxGeometry x="140" y="660" width="120" height="60" as="geometry" />
        </mxCell>
        <mxCell id="O131IjuFNEu1C1bkUDbq-50" value="" style="endArrow=block;endSize=10;endFill=0;shadow=0;strokeWidth=1;rounded=0;curved=0;edgeStyle=elbowEdgeStyle;elbow=vertical;entryX=0.597;entryY=0.942;entryDx=0;entryDy=0;entryPerimeter=0;exitX=0.72;exitY=0.023;exitDx=0;exitDy=0;exitPerimeter=0;" edge="1" parent="WIyWlLk6GJQsqaUBKTNV-1" target="zkfFHV4jXpPFQw0GAbJ--1">
          <mxGeometry width="160" relative="1" as="geometry">
            <mxPoint x="194" y="660" as="sourcePoint" />
            <mxPoint x="406" y="300" as="targetPoint" />
            <Array as="points">
              <mxPoint x="300" y="590" />
            </Array>
          </mxGeometry>
        </mxCell>
        <mxCell id="O131IjuFNEu1C1bkUDbq-51" value="" style="endArrow=none;html=1;rounded=0;exitX=0.453;exitY=1.02;exitDx=0;exitDy=0;exitPerimeter=0;entryX=-0.002;entryY=0.456;entryDx=0;entryDy=0;entryPerimeter=0;" edge="1" parent="WIyWlLk6GJQsqaUBKTNV-1" source="O131IjuFNEu1C1bkUDbq-49" target="z8LdAQdNXlB_STHlRCPJ-9">
          <mxGeometry width="50" height="50" relative="1" as="geometry">
            <mxPoint x="420" y="820" as="sourcePoint" />
            <mxPoint x="194" y="840" as="targetPoint" />
            <Array as="points">
              <mxPoint x="194" y="840" />
            </Array>
          </mxGeometry>
        </mxCell>
        <mxCell id="O131IjuFNEu1C1bkUDbq-53" value="*" style="text;html=1;align=center;verticalAlign=middle;resizable=0;points=[];autosize=1;strokeColor=none;fillColor=none;" vertex="1" parent="WIyWlLk6GJQsqaUBKTNV-1">
          <mxGeometry x="195" y="718" width="30" height="30" as="geometry" />
        </mxCell>
        <mxCell id="O131IjuFNEu1C1bkUDbq-54" value="*" style="text;html=1;align=center;verticalAlign=middle;resizable=0;points=[];autosize=1;strokeColor=none;fillColor=none;" vertex="1" parent="WIyWlLk6GJQsqaUBKTNV-1">
          <mxGeometry x="795" y="818" width="30" height="30" as="geometry" />
        </mxCell>
        <mxCell id="O131IjuFNEu1C1bkUDbq-55" value="" style="endArrow=none;dashed=1;html=1;dashPattern=1 3;strokeWidth=2;rounded=0;" edge="1" parent="WIyWlLk6GJQsqaUBKTNV-1">
          <mxGeometry width="50" height="50" relative="1" as="geometry">
            <mxPoint x="595" y="840" as="sourcePoint" />
            <mxPoint x="594.66" y="780" as="targetPoint" />
          </mxGeometry>
        </mxCell>
        <mxCell id="O131IjuFNEu1C1bkUDbq-56" value="Has" style="text;html=1;align=center;verticalAlign=middle;resizable=0;points=[];autosize=1;strokeColor=none;fillColor=none;" vertex="1" parent="WIyWlLk6GJQsqaUBKTNV-1">
          <mxGeometry x="410" y="818" width="40" height="30" as="geometry" />
        </mxCell>
        <mxCell id="O131IjuFNEu1C1bkUDbq-58" value="Guardian" style="swimlane;fontStyle=0;align=center;verticalAlign=top;childLayout=stackLayout;horizontal=1;startSize=26;horizontalStack=0;resizeParent=1;resizeLast=0;collapsible=1;marginBottom=0;rounded=0;shadow=0;strokeWidth=1;" vertex="1" parent="WIyWlLk6GJQsqaUBKTNV-1">
          <mxGeometry x="370" y="450" width="160" height="70" as="geometry">
            <mxRectangle x="340" y="380" width="170" height="26" as="alternateBounds" />
          </mxGeometry>
        </mxCell>
        <mxCell id="O131IjuFNEu1C1bkUDbq-59" value="phoneNumber&#xa;age&#xa;" style="text;align=left;verticalAlign=top;spacingLeft=4;spacingRight=4;overflow=hidden;rotatable=0;points=[[0,0.5],[1,0.5]];portConstraint=eastwest;" vertex="1" parent="O131IjuFNEu1C1bkUDbq-58">
          <mxGeometry y="26" width="160" height="44" as="geometry" />
        </mxCell>
        <mxCell id="O131IjuFNEu1C1bkUDbq-60" value="" style="endArrow=block;endSize=10;endFill=0;shadow=0;strokeWidth=1;rounded=0;curved=0;edgeStyle=elbowEdgeStyle;elbow=vertical;exitX=0.5;exitY=0;exitDx=0;exitDy=0;entryX=0.913;entryY=1;entryDx=0;entryDy=0;entryPerimeter=0;" edge="1" parent="WIyWlLk6GJQsqaUBKTNV-1" source="O131IjuFNEu1C1bkUDbq-58">
          <mxGeometry width="160" relative="1" as="geometry">
            <mxPoint x="624" y="360" as="sourcePoint" />
            <mxPoint x="340" y="172" as="targetPoint" />
          </mxGeometry>
        </mxCell>
        <mxCell id="O131IjuFNEu1C1bkUDbq-65" value="" style="endArrow=none;html=1;rounded=0;exitX=1;exitY=0.5;exitDx=0;exitDy=0;entryX=0.482;entryY=0.992;entryDx=0;entryDy=0;entryPerimeter=0;" edge="1" parent="WIyWlLk6GJQsqaUBKTNV-1" source="O131IjuFNEu1C1bkUDbq-49" target="O131IjuFNEu1C1bkUDbq-59">
          <mxGeometry width="50" height="50" relative="1" as="geometry">
            <mxPoint x="470" y="580" as="sourcePoint" />
            <mxPoint x="520" y="530" as="targetPoint" />
            <Array as="points">
              <mxPoint x="447" y="690" />
            </Array>
          </mxGeometry>
        </mxCell>
        <mxCell id="O131IjuFNEu1C1bkUDbq-66" value="1...*" style="text;html=1;align=center;verticalAlign=middle;resizable=0;points=[];autosize=1;strokeColor=none;fillColor=none;" vertex="1" parent="WIyWlLk6GJQsqaUBKTNV-1">
          <mxGeometry x="260" y="668" width="40" height="30" as="geometry" />
        </mxCell>
        <mxCell id="O131IjuFNEu1C1bkUDbq-67" value="1" style="text;html=1;align=center;verticalAlign=middle;resizable=0;points=[];autosize=1;strokeColor=none;fillColor=none;" vertex="1" parent="WIyWlLk6GJQsqaUBKTNV-1">
          <mxGeometry x="445" y="518" width="30" height="30" as="geometry" />
        </mxCell>
        <mxCell id="O131IjuFNEu1C1bkUDbq-69" value="Responsible-for" style="text;html=1;align=center;verticalAlign=middle;resizable=0;points=[];autosize=1;strokeColor=none;fillColor=none;" vertex="1" parent="WIyWlLk6GJQsqaUBKTNV-1">
          <mxGeometry x="330" y="659" width="110" height="30" as="geometry" />
        </mxCell>
        <mxCell id="O131IjuFNEu1C1bkUDbq-70" value="" style="triangle;whiteSpace=wrap;html=1;strokeColor=default;fillColor=#000000;rotation=-180;" vertex="1" parent="WIyWlLk6GJQsqaUBKTNV-1">
          <mxGeometry x="315" y="663" width="20" height="22" as="geometry" />
        </mxCell>
      </root>
    </mxGraphModel>
  </diagram>
</mxfile>
